<?xml version="1.0" encoding="utf-8"?>
<!-- Generator: Adobe Illustrator 21.1.0, SVG Export Plug-In . SVG Version: 6.00 Build 0)  -->
<svg version="1.1" id="Capa_1" xmlns="http://www.w3.org/2000/svg" xmlns:xlink="http://www.w3.org/1999/xlink" x="0px" y="0px"
	 viewBox="0 0 346.7 92.5" style="enable-background:new 0 0 346.7 92.5;" xml:space="preserve">
<style type="text/css">
	.st0{fill:#8D8D8D;}
	.st1{fill:none;stroke:#000000;stroke-linecap:round;stroke-linejoin:round;stroke-miterlimit:10;}
	.st2{fill:none;stroke:#000000;stroke-miterlimit:10;}
	.st3{enable-background:new    ;}
	.st4{fill:none;stroke:#FFFFFF;stroke-linecap:round;stroke-linejoin:round;stroke-miterlimit:10;}
	.st5{fill:none;stroke:#FFFFFF;stroke-miterlimit:10;}
	.st6{fill:#FFFFFF;}
	.st7{fill:none;stroke:#FFFFFF;stroke-width:3;stroke-linecap:round;stroke-linejoin:round;stroke-miterlimit:10;}
	.st8{fill:none;stroke:#FFFFFF;stroke-width:3;stroke-miterlimit:10;}
</style>
<path class="st0" d="M-512.9,138.1c-2.1-14.1-1.9-28.7,3.2-42.1c4.7-12.3,14.2-21.9,27.9-22.8c5.8-0.4,11.5,1.3,16.8,3.7
	c4.7,2.2,9.3,6.4,14.4,7.4c11.5,2.1,20.2-3.9,29.6-9.4c4.9-2.9,12-3.3,17.5-2.3c31.2,5.4,32.4,45.5,27.7,69.6
	c-3.6,18.3-9.8,36.5-20.3,52c-4.7,6.9-13.1,19.9-21.8,21.4c-9.5,1.6-14.6-5.2-16.4-13.7c-1.3-5.8-1.7-12-5-17
	c-0.8-1.3-1.9-2.4-3.3-2.9c-2.4-0.8-6.2,1.9-7.4,4c-2.3,3.8-2.6,9-3.5,13.2c-0.8,4.4-2,8.9-4.7,12.4c-6.6,8.6-16.7,4.6-22.7-2.3
	c-13.8-15.9-23.4-35.3-28.7-55.6C-511,148.6-512.2,143.4-512.9,138.1z"/>
<path class="st1" d="M-646.1-127.5c-1.5-7.6-0.4-20.1,7.2-24.2c4.5-2.4,10-2,14.8-0.9c9,2.1,17.6,5.4,26.5,7.8"/>
<path class="st1" d="M-610.4-148.7c6.6-2.7,14-5.3,21.2-3.4c12.1,3.2,12.1,15.6,11.7,25.8"/>
<path class="st2" d="M-643.6-114.1c3.3,14.8,14.1,33,31.2,33.1c7.9,0,15-4.6,20.5-9.9c5.5-5.2,9.2-12.2,10.5-19.7"/>
<line class="st1" x1="-647.5" y1="-110.7" x2="-640.2" y2="-118"/>
<line class="st1" x1="-585.1" y1="-114.1" x2="-577.3" y2="-106.2"/>
<text transform="matrix(1 0 0 1 -556.582 -119.5969)" style="font-family:'ArialMT'; font-size:20.6213px;">TEJVALDENTAL</text>
<text transform="matrix(1.1097 0 0 1 -557.876 -100.3634)" style="font-family:'ArialMT'; font-size:12.5921px;">DEPÓSITO DENTAL</text>
<path class="st4" d="M10.8-116.7c-1.5-7.6-0.4-20.1,7.2-24.2c4.5-2.4,10-2,14.8-0.9c9,2.1,17.6,5.4,26.5,7.8"/>
<path class="st4" d="M46.5-137.9c6.6-2.7,14-5.3,21.2-3.4c12.1,3.2,12.1,15.6,11.7,25.8"/>
<path class="st5" d="M13.3-103.3c3.3,14.8,14.1,33,31.2,33.1c7.9,0,15-4.6,20.5-9.9c5.5-5.2,9.2-12.2,10.5-19.7"/>
<line class="st4" x1="9.5" y1="-99.9" x2="16.7" y2="-107.1"/>
<line class="st4" x1="71.8" y1="-103.2" x2="79.6" y2="-95.4"/>
<g>
	<path class="st6" d="M104.5-121.1h-4.2v-1.5h10.3v1.5h-4.2v12.4h-1.8v-12.4H104.5z"/>
	<path class="st6" d="M119.3-115.3h-5.4v5h6v1.5h-7.8v-13.9h7.5v1.5h-5.7v4.4h5.4V-115.3z"/>
	<path class="st6" d="M125.5-122.7h1.8v9.3c0,3.7-1.8,4.8-4.2,4.8c-0.7,0-1.5-0.1-1.9-0.3l0.3-1.5c0.4,0.1,0.9,0.3,1.5,0.3
		c1.6,0,2.6-0.7,2.6-3.4v-9.2H125.5z"/>
	<path class="st6" d="M133.3-108.8l-4.5-13.9h1.9l2.2,6.8c0.6,1.9,1.1,3.6,1.5,5.2l0,0c0.4-1.6,1-3.4,1.6-5.2l2.3-6.9h1.9l-5,13.9
		L133.3-108.8L133.3-108.8z"/>
	<path class="st6" d="M142.9-113.1l-1.4,4.4h-1.9l4.7-13.9h2.2l4.7,13.9h-1.9l-1.5-4.4H142.9z M147.4-114.5l-1.4-4
		c-0.3-0.9-0.5-1.7-0.7-2.5l0,0c-0.2,0.8-0.4,1.7-0.7,2.5l-1.4,4H147.4z"/>
	<path class="st6" d="M153.2-122.7h1.8v12.4h5.9v1.5h-7.7V-122.7z"/>
	<path class="st6" d="M163-122.5c1.1-0.2,2.4-0.3,3.8-0.3c2.6,0,4.4,0.6,5.6,1.7c1.2,1.1,2,2.7,2,5s-0.7,4.1-2,5.4s-3.4,2-6.1,2
		c-1.3,0-2.4-0.1-3.3-0.2V-122.5z M164.8-110.2c0.5,0.1,1.1,0.1,1.8,0.1c3.8,0,5.9-2.1,5.9-5.9c0-3.3-1.8-5.4-5.6-5.4
		c-0.9,0-1.6,0.1-2.1,0.2L164.8-110.2L164.8-110.2z"/>
	<path class="st6" d="M183.9-115.3h-5.4v5h6v1.5h-7.8v-13.9h7.5v1.5h-5.7v4.4h5.4V-115.3z"/>
	<path class="st6" d="M186.9-108.8v-13.9h2l4.5,7c1,1.6,1.8,3.1,2.5,4.5l0,0c-0.2-1.9-0.2-3.5-0.2-5.7v-5.8h1.7v13.9h-1.8l-4.4-7.1
		c-1-1.5-1.9-3.1-2.6-4.6h-0.1c0.1,1.8,0.1,3.4,0.1,5.7v5.9L186.9-108.8L186.9-108.8z"/>
	<path class="st6" d="M203.1-121.1h-4.2v-1.5h10.3v1.5H205v12.4h-1.8v-12.4H203.1z"/>
	<path class="st6" d="M211.4-113.1l-1.4,4.4h-1.9l4.7-13.9h2.2l4.7,13.9h-1.9l-1.5-4.4H211.4z M215.9-114.5l-1.4-4
		c-0.3-0.9-0.5-1.7-0.7-2.5l0,0c-0.2,0.8-0.4,1.7-0.7,2.5l-1.4,4H215.9z"/>
	<path class="st6" d="M221.7-122.7h1.8v12.4h5.9v1.5h-7.7V-122.7z"/>
</g>
<g>
	<path class="st6" d="M100.1-97.9c0.7-0.1,1.6-0.2,2.6-0.2c1.7,0,3,0.4,3.8,1.1s1.3,1.7,1.3,3c0,1.4-0.5,2.5-1.4,3.3
		s-2.3,1.2-4.2,1.2c-0.9,0-1.6,0-2.2-0.1L100.1-97.9L100.1-97.9z M101.3-90.4c0.3,0.1,0.8,0.1,1.2,0.1c2.6,0,4-1.3,4-3.6
		c0-2-1.2-3.3-3.8-3.3c-0.6,0-1.1,0.1-1.4,0.1C101.3-97.1,101.3-90.4,101.3-90.4z"/>
	<path class="st6" d="M115.8-93.5h-3.7v3.1h4.1v0.9h-5.3V-98h5.1v0.9h-3.9v2.7h3.7C115.8-94.4,115.8-93.5,115.8-93.5z"/>
	<path class="st6" d="M119.2-97.9c0.6-0.1,1.4-0.2,2.3-0.2c1.2,0,2.1,0.3,2.6,0.7c0.5,0.4,0.8,1,0.8,1.8s-0.3,1.4-0.7,1.8
		c-0.6,0.6-1.7,0.9-2.9,0.9c-0.4,0-0.7,0-1-0.1v3.4h-1.2L119.2-97.9L119.2-97.9z M120.5-93.8c0.3,0.1,0.6,0.1,1,0.1
		c1.5,0,2.4-0.6,2.4-1.8c0-1.1-0.9-1.7-2.2-1.7c-0.5,0-0.9,0-1.1,0.1v3.3H120.5z"/>
	<path class="st6" d="M136.2-93.9c0,2.9-2,4.5-4.4,4.5c-2.5,0-4.2-1.7-4.2-4.3c0-2.7,1.9-4.5,4.4-4.5
		C134.5-98.2,136.2-96.4,136.2-93.9z M128.9-93.7c0,1.8,1.1,3.4,3,3.4s3-1.6,3-3.5c0-1.7-1-3.4-3-3.4
		C129.9-97.3,128.9-95.6,128.9-93.7z M133.9-100l-1.8,1.5h-1l1.3-1.5H133.9z"/>
	<path class="st6" d="M139.1-90.9c0.5,0.3,1.3,0.6,2.2,0.6c1.2,0,2-0.6,2-1.4s-0.5-1.2-1.8-1.7c-1.5-0.5-2.5-1.2-2.5-2.4
		c0-1.3,1.2-2.3,3-2.3c1,0,1.7,0.2,2.1,0.4l-0.3,0.9c-0.3-0.2-0.9-0.4-1.8-0.4c-1.3,0-1.8,0.7-1.8,1.3c0,0.8,0.6,1.2,1.9,1.6
		c1.6,0.6,2.4,1.2,2.4,2.5s-1.1,2.4-3.3,2.4c-0.9,0-1.9-0.2-2.4-0.5L139.1-90.9z"/>
	<path class="st6" d="M148.8-98v8.5h-1.2V-98H148.8z"/>
	<path class="st6" d="M154.2-97.1h-2.9V-98h7v0.9h-2.9v7.6h-1.2L154.2-97.1L154.2-97.1z"/>
	<path class="st6" d="M168.6-93.9c0,2.9-2,4.5-4.4,4.5c-2.5,0-4.2-1.7-4.2-4.3c0-2.7,1.9-4.5,4.4-4.5
		C166.9-98.2,168.6-96.4,168.6-93.9z M161.2-93.7c0,1.8,1.1,3.4,3,3.4s3-1.6,3-3.5c0-1.7-1-3.4-3-3.4
		C162.3-97.3,161.2-95.6,161.2-93.7z"/>
	<path class="st6" d="M176.1-97.9c0.7-0.1,1.6-0.2,2.6-0.2c1.7,0,3,0.4,3.8,1.1s1.3,1.7,1.3,3c0,1.4-0.5,2.5-1.4,3.3
		s-2.3,1.2-4.2,1.2c-0.9,0-1.6,0-2.2-0.1L176.1-97.9L176.1-97.9z M177.3-90.4c0.3,0.1,0.8,0.1,1.2,0.1c2.6,0,4-1.3,4-3.6
		c0-2-1.2-3.3-3.8-3.3c-0.6,0-1.1,0.1-1.4,0.1V-90.4z"/>
	<path class="st6" d="M191.7-93.5H188v3.1h4.1v0.9h-5.3V-98h5.1v0.9H188v2.7h3.7L191.7-93.5L191.7-93.5z"/>
	<path class="st6" d="M195.2-89.5V-98h1.3l3,4.3c0.7,1,1.2,1.9,1.7,2.8l0,0c-0.1-1.1-0.1-2.2-0.1-3.5V-98h1.1v8.5H201l-3-4.3
		c-0.7-0.9-1.3-1.9-1.8-2.8l0,0c0.1,1.1,0.1,2.1,0.1,3.5v3.6C196.3-89.5,195.2-89.5,195.2-89.5z"/>
	<path class="st6" d="M207.7-97.1h-2.9V-98h7v0.9h-2.9v7.6h-1.2L207.7-97.1L207.7-97.1z"/>
	<path class="st6" d="M214.8-92.2l-1,2.7h-1.3l3.2-8.5h1.5l3.2,8.5h-1.3l-1-2.7H214.8z M217.9-93.1l-0.9-2.4
		c-0.2-0.6-0.3-1.1-0.5-1.5l0,0c-0.1,0.5-0.3,1-0.5,1.5l-0.9,2.5L217.9-93.1L217.9-93.1z"/>
	<path class="st6" d="M223.3-98h1.2v7.6h4v0.9h-5.2V-98z"/>
</g>
<path class="st7" d="M15,38.5c-1.5-7.6-0.4-20.1,7.2-24.2c4.5-2.4,10-2,14.8-0.9c9,2.1,17.6,5.4,26.5,7.8"/>
<path class="st7" d="M50.7,17.3c6.6-2.7,14-5.3,21.2-3.4C84,17.1,84,29.5,83.6,39.7"/>
<path class="st8" d="M17.5,51.9c3.3,14.8,14.1,33,31.2,33.1c15.5,0,28.5-15.3,31-29.6"/>
<line class="st7" x1="13.6" y1="55.3" x2="20.9" y2="48"/>
<line class="st7" x1="76" y1="51.9" x2="83.8" y2="59.8"/>
<g class="st3">
	<path class="st6" d="M113.8,43.9V26.3h-6.3v-3.6h16.8v3.6h-6.3v17.6H113.8z"/>
	<path class="st6" d="M127.1,43.9V22.7h15.7v3.6h-11.4V31H142v3.6h-10.6v5.8h11.8v3.6H127.1z"/>
	<path class="st6" d="M154.5,22.7h4.3v13.4c0,1.8-0.2,3.1-0.5,4c-0.4,1.2-1.2,2.2-2.3,3c-1.1,0.7-2.5,1.1-4.3,1.1
		c-2.1,0-3.7-0.6-4.8-1.8s-1.7-2.9-1.7-5.2l4-0.5c0,1.2,0.2,2.1,0.5,2.6c0.5,0.8,1.2,1.1,2.1,1.1c1,0,1.6-0.3,2-0.8
		c0.4-0.5,0.6-1.7,0.6-3.4V22.7z"/>
	<path class="st6" d="M168.7,43.9l-7.6-21.2h4.6l5.4,15.7l5.2-15.7h4.5l-7.6,21.2H168.7z"/>
	<path class="st6" d="M199.9,43.9h-4.7l-1.8-4.8H185l-1.7,4.8h-4.5l8.3-21.2h4.5L199.9,43.9z M192,35.5l-2.9-7.9l-2.9,7.9H192z"/>
	<path class="st6" d="M202.3,43.9v-21h4.3v17.4h10.6v3.6H202.3z"/>
	<path class="st6" d="M220.3,22.7h7.8c1.8,0,3.1,0.1,4,0.4c1.2,0.4,2.3,1,3.2,2c0.9,0.9,1.6,2.1,2,3.4c0.5,1.4,0.7,3,0.7,5
		c0,1.7-0.2,3.2-0.6,4.5c-0.5,1.5-1.3,2.8-2.3,3.7c-0.7,0.7-1.7,1.3-3,1.7c-0.9,0.3-2.2,0.4-3.8,0.4h-8V22.7z M224.5,26.3v14h3.2
		c1.2,0,2.1-0.1,2.6-0.2c0.7-0.2,1.3-0.5,1.7-0.9c0.5-0.4,0.8-1.1,1.1-2c0.3-0.9,0.4-2.2,0.4-3.9s-0.1-2.9-0.4-3.8
		c-0.3-0.9-0.7-1.6-1.2-2.1c-0.5-0.5-1.2-0.8-2-1c-0.6-0.1-1.8-0.2-3.5-0.2H224.5z"/>
	<path class="st6" d="M241.6,43.9V22.7h15.7v3.6h-11.4V31h10.6v3.6h-10.6v5.8h11.8v3.6H241.6z"/>
	<path class="st6" d="M261.4,43.9V22.7h4.2l8.7,14.1V22.7h4v21.2h-4.3l-8.5-13.8v13.8H261.4z"/>
	<path class="st6" d="M287.5,43.9V26.3h-6.3v-3.6h16.8v3.6h-6.3v17.6H287.5z"/>
	<path class="st6" d="M317.7,43.9h-4.7l-1.8-4.8h-8.5l-1.7,4.8h-4.5l8.3-21.2h4.5L317.7,43.9z M309.9,35.5l-2.9-7.9l-2.9,7.9H309.9z
		"/>
	<path class="st6" d="M320.1,43.9v-21h4.3v17.4H335v3.6H320.1z"/>
</g>
<g class="st3">
	<path class="st6" d="M107.5,72.2V58.7h5.2c1.2,0,2.1,0.1,2.7,0.2c0.9,0.2,1.6,0.5,2.2,1c0.8,0.6,1.4,1.4,1.8,2.3
		c0.4,0.9,0.6,2,0.6,3.2c0,1-0.1,1.9-0.4,2.7s-0.6,1.4-1,2c-0.4,0.5-0.9,0.9-1.4,1.2c-0.5,0.3-1.1,0.5-1.8,0.7s-1.5,0.2-2.4,0.2
		H107.5z M109.5,70.6h3.2c1,0,1.8-0.1,2.3-0.2c0.6-0.2,1-0.4,1.3-0.7c0.5-0.4,0.8-1,1.1-1.7c0.3-0.7,0.4-1.6,0.4-2.6
		c0-1.4-0.3-2.5-0.8-3.3c-0.5-0.8-1.1-1.3-1.9-1.5c-0.5-0.2-1.4-0.3-2.6-0.3h-3.1V70.6z"/>
	<path class="st6" d="M125.2,72.2V58.7H136v1.6h-8.8v4.1h8.3V66h-8.3v4.6h9.2v1.6H125.2z"/>
	<path class="st6" d="M141.6,72.2V58.7h5.6c1,0,1.8,0,2.3,0.1c0.7,0.1,1.4,0.3,1.8,0.6s0.9,0.7,1.2,1.3c0.3,0.6,0.5,1.2,0.5,1.8
		c0,1.1-0.4,2.1-1.2,2.9s-2.3,1.2-4.4,1.2h-3.8v5.5H141.6z M143.6,65.1h3.9c1.3,0,2.2-0.2,2.7-0.6c0.5-0.4,0.8-1,0.8-1.8
		c0-0.6-0.2-1-0.5-1.4s-0.7-0.7-1.2-0.8c-0.3-0.1-0.9-0.1-1.8-0.1h-3.8V65.1z"/>
	<path class="st6" d="M157.4,65.6c0-2.2,0.7-4,2-5.3c1.3-1.3,3.1-1.9,5.2-1.9c1.4,0,2.6,0.3,3.7,0.9c1.1,0.6,2,1.4,2.5,2.5
		s0.9,2.3,0.9,3.6c0,1.4-0.3,2.6-0.9,3.7s-1.5,1.9-2.6,2.5s-2.3,0.8-3.6,0.8c-1.4,0-2.7-0.3-3.8-0.9s-1.9-1.5-2.5-2.5
		C157.7,67.9,157.4,66.8,157.4,65.6z M159.5,65.6c0,1.6,0.5,2.9,1.5,3.8c1,0.9,2.2,1.4,3.6,1.4c1.5,0,2.7-0.5,3.7-1.4
		c1-0.9,1.4-2.3,1.4-4c0-1.1-0.2-2.1-0.6-2.9s-1-1.5-1.8-1.9s-1.7-0.7-2.7-0.7c-1.4,0-2.6,0.4-3.6,1.3
		C160,62.2,159.5,63.6,159.5,65.6z M163.3,57.9l1.4-2.6h2.4l-2.2,2.6H163.3z"/>
	<path class="st6" d="M176.1,67.9l1.9-0.1c0.1,0.7,0.3,1.2,0.6,1.7c0.3,0.4,0.8,0.8,1.5,1c0.7,0.3,1.4,0.4,2.3,0.4
		c0.8,0,1.4-0.1,2-0.3s1-0.5,1.3-0.8c0.3-0.4,0.4-0.7,0.4-1.2c0-0.4-0.1-0.8-0.4-1.1c-0.3-0.3-0.7-0.6-1.3-0.8
		c-0.4-0.1-1.3-0.4-2.7-0.7c-1.4-0.3-2.3-0.6-2.9-0.8c-0.7-0.3-1.2-0.8-1.6-1.3c-0.4-0.5-0.5-1.1-0.5-1.7c0-0.7,0.2-1.3,0.6-1.9
		s1.1-1,1.9-1.3s1.7-0.5,2.7-0.5c1.1,0,2.1,0.2,2.9,0.5c0.8,0.3,1.5,0.8,2,1.4s0.7,1.3,0.7,2.1l-1.9,0.1c-0.1-0.9-0.4-1.5-1-1.9
		c-0.6-0.4-1.5-0.7-2.6-0.7c-1.2,0-2.1,0.2-2.6,0.6c-0.5,0.4-0.8,0.9-0.8,1.4c0,0.5,0.2,0.9,0.6,1.2c0.4,0.3,1.4,0.6,3,1
		c1.6,0.3,2.7,0.6,3.3,0.9c0.9,0.4,1.5,0.8,1.9,1.4c0.4,0.6,0.6,1.2,0.6,1.9c0,0.7-0.2,1.4-0.7,2s-1.1,1.1-2,1.5
		c-0.9,0.4-1.8,0.5-2.9,0.5c-1.4,0-2.5-0.2-3.4-0.5s-1.6-0.9-2.2-1.6C176.4,69.6,176.1,68.8,176.1,67.9z"/>
	<path class="st6" d="M193.6,72.2V58.7h2v13.5H193.6z"/>
	<path class="st6" d="M205.4,72.2V60.3h-4.9v-1.6h11.9v1.6h-4.9v11.9H205.4z"/>
	<path class="st6" d="M215.8,65.6c0-2.2,0.7-4,2-5.3c1.3-1.3,3.1-1.9,5.2-1.9c1.4,0,2.6,0.3,3.7,0.9c1.1,0.6,2,1.4,2.5,2.5
		c0.6,1.1,0.9,2.3,0.9,3.6c0,1.4-0.3,2.6-0.9,3.7s-1.5,1.9-2.6,2.5s-2.3,0.8-3.6,0.8c-1.4,0-2.7-0.3-3.8-0.9s-1.9-1.5-2.5-2.5
		S215.8,66.8,215.8,65.6z M217.9,65.6c0,1.6,0.5,2.9,1.5,3.8c1,0.9,2.2,1.4,3.6,1.4c1.5,0,2.7-0.5,3.7-1.4c1-0.9,1.4-2.3,1.4-4
		c0-1.1-0.2-2.1-0.6-2.9c-0.4-0.8-1-1.5-1.8-1.9c-0.8-0.5-1.7-0.7-2.7-0.7c-1.4,0-2.6,0.4-3.6,1.3C218.4,62.2,217.9,63.6,217.9,65.6
		z"/>
	<path class="st6" d="M243.5,72.2V58.7h5.2c1.2,0,2.1,0.1,2.7,0.2c0.9,0.2,1.6,0.5,2.2,1c0.8,0.6,1.4,1.4,1.8,2.3
		c0.4,0.9,0.6,2,0.6,3.2c0,1-0.1,1.9-0.4,2.7c-0.3,0.8-0.6,1.4-1,2c-0.4,0.5-0.9,0.9-1.4,1.2c-0.5,0.3-1.1,0.5-1.8,0.7
		s-1.5,0.2-2.4,0.2H243.5z M245.5,70.6h3.2c1,0,1.8-0.1,2.3-0.2c0.6-0.2,1-0.4,1.3-0.7c0.5-0.4,0.8-1,1.1-1.7
		c0.3-0.7,0.4-1.6,0.4-2.6c0-1.4-0.3-2.5-0.8-3.3s-1.1-1.3-1.9-1.5c-0.5-0.2-1.4-0.3-2.6-0.3h-3.1V70.6z"/>
	<path class="st6" d="M261.2,72.2V58.7H272v1.6h-8.8v4.1h8.3V66h-8.3v4.6h9.2v1.6H261.2z"/>
	<path class="st6" d="M277.5,72.2V58.7h2l7.9,10.6V58.7h1.9v13.5h-2l-7.9-10.6v10.6H277.5z"/>
	<path class="st6" d="M299,72.2V60.3H294v-1.6h11.9v1.6h-4.9v11.9H299z"/>
	<path class="st6" d="M307.2,72.2l5.7-13.5h2.1l6.1,13.5H319l-1.7-4.1H311l-1.6,4.1H307.2z M311.6,66.6h5.1l-1.6-3.7
		c-0.5-1.1-0.8-2.1-1.1-2.8c-0.2,0.9-0.5,1.7-0.8,2.6L311.6,66.6z"/>
	<path class="st6" d="M325.2,72.2V58.7h2v11.9h7.4v1.6H325.2z"/>
</g>
</svg>
